<svg height="445pt" viewBox="0 -47 445.97 445" width="445pt" xmlns="http://www.w3.org/2000/svg"><path d="m445.96875 269.144531v41.339844c0 22.09375-17.90625 40-40 40h-365.96875c-22.089844 0-40-17.90625-40-40v-27.308594l85.238281-56.769531c13.441407-8.84375 30.871094-8.777344 44.242188.167969l50.917969 34.070312c17.808593 11.921875 41.847656 7.6875 54.511718-9.597656l68.109375-92.980469c7.609375-10.386718 19.75-16.476562 32.621094-16.363281 12.875.113281 24.90625 6.414063 32.328125 16.933594zm0 0" fill="#00acea"/><path d="m445.96875 40.484375v228.660156l-78-110.507812c-7.421875-10.519531-19.453125-16.820313-32.328125-16.933594-12.871094-.113281-25.011719 5.976563-32.621094 16.363281l-68.109375 92.980469c-12.664062 17.285156-36.703125 21.519531-54.511718 9.597656l-50.917969-34.070312c-13.371094-8.945313-30.800781-9.011719-44.242188-.167969l-85.238281 56.769531v-242.691406c0-22.089844 17.910156-40 40-40h365.96875c22.09375 0 40 17.910156 40 40zm0 0" fill="#00efd1"/><path d="m176.960938 56.484375c31.871093-.003906 57.707031 25.832031 57.710937 57.703125 0 31.871094-25.835937 57.707031-57.707031 57.707031s-57.707032-25.839843-57.703125-57.710937c0-31.867188 25.832031-57.699219 57.699219-57.699219zm0 0" fill="#fedb41"/></svg>