<svg height="512pt" viewBox="0 -13 512 511" width="512pt" xmlns="http://www.w3.org/2000/svg"><path d="m132.183594 89.742188v110.523437c-13.703125-5.625-30.480469-7.414063-48.621094-4.214844-46.152344 8.136719-83.5625 45.359375-83.5625 83.140625 0 37.777344 37.410156 61.804688 83.5625 53.667969 46.148438-8.136719 83.558594-45.359375 83.558594-83.136719v-166.140625zm0 0" fill="#f7ef87"/><path d="m127.898438 314.609375c-51.441407-14.960937-70.046876-82.820313-56.179688-115.773437-40.539062 11.855468-71.71875 45.867187-71.71875 80.355468 0 37.777344 37.410156 61.804688 83.5625 53.667969 16.289062-2.871094 31.484375-9.382813 44.335938-18.25zm0 0" fill="#efd176"/><path d="m56.945312 301.339844c-1.917968 0-3.839843-.730469-5.300781-2.195313-2.929687-2.929687-2.929687-7.679687 0-10.605469l9.175781-9.179687c2.929688-2.929687 7.679688-2.929687 10.605469 0 2.929688 2.929687 2.929688 7.679687 0 10.605469l-9.175781 9.179687c-1.464844 1.464844-3.382812 2.195313-5.304688 2.195313zm0 0" fill="#f7ef87"/><path d="m132.183594 89.742188 91.660156-16.160157c25.496094-4.496093 44.082031-26.648437 44.082031-52.539062 0-12.769531-11.527343-22.441407-24.101562-20.226563l-85.363281 15.054688c-15.199219 2.679687-26.277344 15.882812-26.277344 31.316406zm0 0" fill="#eea849"/><path d="m200.210938 8.507812-41.75 7.359376c-15.199219 2.679687-26.277344 15.886718-26.277344 31.320312v42.554688l79.292968-13.980469c-13.039062-18.734375-14.589843-49.761719-11.265624-67.253907zm0 0" fill="#e9901b"/><path d="m254.851562 240.527344v110.523437c-13.699218-5.625-30.476562-7.417969-48.621093-4.21875-46.148438 8.140625-83.558594 45.363281-83.558594 83.140625s37.410156 61.808594 83.558594 53.667969c46.148437-8.136719 83.5625-45.359375 83.5625-83.136719v-166.140625zm0 0" fill="#a3defe"/><path d="m250.570312 465.390625c-51.441406-14.960937-70.046874-82.816406-56.179687-115.773437-40.539063 11.859374-71.71875 45.867187-71.71875 80.355468 0 37.777344 37.410156 61.808594 83.558594 53.667969 16.292969-2.871094 31.484375-9.382813 44.339843-18.25zm0 0" fill="#7acefa"/><path d="m477.0625 201.34375v110.523438c-13.703125-5.625-30.480469-7.414063-48.621094-4.214844-46.152344 8.136718-83.5625 45.359375-83.5625 83.136718 0 37.78125 37.410156 61.808594 83.5625 53.671876 46.148438-8.136719 83.558594-45.359376 83.558594-83.136719v-166.140625zm0 0" fill="#a3defe"/><g fill="#7acefa"><path d="m472.777344 426.210938c-51.441406-14.960938-70.046875-82.820313-56.179688-115.773438-40.539062 11.855469-71.71875 45.867188-71.71875 80.351562 0 37.78125 37.410156 61.808594 83.558594 53.671876 16.292969-2.871094 31.488281-9.382813 44.339844-18.25zm0 0"/><path d="m455.117188 367.296875c-1.917969 0-3.835938-.734375-5.300782-2.199219-2.929687-2.929687-2.929687-7.675781 0-10.605468l10.578125-10.578126c2.929688-2.929687 7.679688-2.929687 10.605469 0 2.929688 2.929688 2.929688 7.675782 0 10.605469l-10.578125 10.578125c-1.464844 1.464844-3.382813 2.199219-5.304687 2.199219zm0 0"/><path d="m235.53125 440.050781c-1.917969 0-3.839844-.730469-5.300781-2.195312-2.929688-2.929688-2.929688-7.679688 0-10.609375l10.976562-10.980469c2.929688-2.925781 7.679688-2.929687 10.605469 0 2.929688 2.929687 2.929688 7.679687 0 10.609375l-10.976562 10.976562c-1.464844 1.46875-3.382813 2.199219-5.304688 2.199219zm0 0"/></g><path d="m254.851562 240.527344 257.148438-45.34375v-44.765625c0-12.769531-11.527344-22.441407-24.101562-20.222657l-206.765626 36.457032c-15.199218 2.679687-26.28125 15.882812-26.28125 31.316406zm0 0" fill="#f7ef87"/><path d="m393.199219 146.890625-112.066407 19.761719c-15.199218 2.679687-26.28125 15.882812-26.28125 31.316406v42.558594l150.433594-26.527344c-18.421875-13.230469-20.480468-41.964844-12.085937-67.109375zm0 0" fill="#efd176"/><path d="m350.097656 203.085938c-1.558594-8.835938-11.816406-14.414063-22.914062-12.457032-11.097656 1.957032-18.832032 10.707032-17.273438 19.542969s11.816406 14.414063 22.914063 12.457031c11.097656-1.957031 18.832031-10.703125 17.273437-19.542968zm0 0" fill="#eda1ab"/><path d="m418.851562 190.933594c1.554688 8.835937 11.816407 14.414062 22.914063 12.457031s18.828125-10.707031 17.273437-19.542969c-1.558593-8.835937-11.816406-14.414062-22.914062-12.457031s-18.832031 10.703125-17.273438 19.542969zm0 0" fill="#eda1ab"/><path d="m338.902344 196.089844c-3.570313 0-6.734375-2.5625-7.375-6.199219l-1.25-7.097656c-.71875-4.078125 2.003906-7.96875 6.082031-8.6875 4.082031-.71875 7.96875 2.003906 8.691406 6.085937l1.25 7.09375c.71875 4.078125-2.003906 7.96875-6.085937 8.6875-.441406.078125-.878906.117188-1.3125.117188zm0 0" fill="#4e5660"/><path d="m424.398438 181.011719c-3.574219 0-6.738282-2.558594-7.378907-6.195313l-1.25-7.097656c-.71875-4.078125 2.003907-7.96875 6.082031-8.6875 4.082032-.714844 7.96875 2.003906 8.6875 6.082031l1.253907 7.097657c.71875 4.078124-2.007813 7.96875-6.085938 8.6875-.4375.078124-.878906.113281-1.308593.113281zm0 0" fill="#4e5660"/><path d="m379.988281 194.230469c-5.144531 0-10.1875-1.757813-14.257812-5.042969-3.21875-2.601562-3.722657-7.324219-1.121094-10.546875s7.324219-3.726563 10.546875-1.125c1.734375 1.402344 3.980469 1.980469 6.160156 1.597656 2.183594-.386719 4.09375-1.699219 5.246094-3.605469 2.136719-3.546874 6.746094-4.691406 10.292969-2.554687s4.691406 6.746094 2.554687 10.296875c-3.390625 5.621094-9.03125 9.496094-15.488281 10.636719-1.308594.230469-2.625.34375-3.933594.34375zm0 0" fill="#4e5660"/></svg>